<?xml version="1.0" encoding="utf-8"?>
<!-- Generator: Adobe Illustrator 27.5.0, SVG Export Plug-In . SVG Version: 6.00 Build 0)  -->
<svg version="1.1" xmlns="http://www.w3.org/2000/svg" xmlns:xlink="http://www.w3.org/1999/xlink" x="0px" y="0px"
	 viewBox="0 0 500 500" style="enable-background:new 0 0 500 500;" xml:space="preserve">
<g id="BACKGROUND">
	<rect style="fill:#F4F0E2;" width="500" height="500"/>
</g>
<g id="OBJECTS">
	<ellipse style="fill:#EADDD3;" cx="243.916" cy="418.008" rx="190.147" ry="56.1"/>
	<g>
		<path style="fill:#FFDEC0;" d="M411.818,402.703l-88.48,53.648c-14.15-18.797-4.266-36.556-4.266-36.556l87.08-52.696
			c-2.885,16.311-0.486,25.7,2.028,30.7C409.971,401.379,411.818,402.703,411.818,402.703z"/>
		<polygon style="fill:#F98C3A;" points="411.818,363.672 406.152,367.099 319.072,419.795 78.628,367.766 171.374,311.652 		"/>
		<path style="fill:#FFAE64;" d="M415.845,403.405l-92.508,55.733l-20.72-4.485l-6.161-1.333l-64.922-14.045l-5.99-1.295
			L96.958,410.147l-6.009-1.295l-16.13-3.495c-3.914-25.881,3.809-37.594,3.809-37.594l16.15,3.495l5.656,1.228l129.301,27.976
			l5.666,1.228l62.846,13.598l5.618,1.219l15.207,3.285c0,0-9.884,17.759,4.266,36.556l88.48-53.648c0,0-1.847-1.324-3.638-4.904
			L415.845,403.405z"/>
		<path style="fill:#DBC6AD;" d="M402.474,372.374c-10.576,6.622-21.208,13.156-31.895,19.599
			c-10.687,6.443-21.428,12.795-32.222,19.056c-6.053,3.511-12.122,6.992-18.208,10.446c-0.534,0.303-0.033,1.113,0.499,0.811
			c10.853-6.159,21.654-12.408,32.401-18.749c10.747-6.341,21.441-12.773,32.079-19.295c5.965-3.657,11.913-7.343,17.844-11.056
			C403.492,372.859,402.993,372.048,402.474,372.374z"/>
		<path style="fill:#DBC6AD;" d="M403.541,374.008c-11.297,7.196-22.594,14.391-33.891,21.587
			c-11.297,7.196-22.594,14.391-33.891,21.587c-6.35,4.045-12.701,8.09-19.051,12.135c-0.517,0.329-0.018,1.141,0.499,0.811
			c11.297-7.196,22.594-14.391,33.891-21.587c11.297-7.196,22.594-14.391,33.892-21.587c6.35-4.045,12.701-8.09,19.051-12.135
			C404.557,374.49,404.058,373.678,403.541,374.008z"/>
		<path style="fill:#DBC6AD;" d="M402.357,381.008l-66.443,40.963c-6.212,3.83-12.424,7.66-18.636,11.49
			c-0.522,0.322-0.023,1.133,0.499,0.811l33.221-20.482c11.074-6.827,22.147-13.654,33.221-20.482
			c6.212-3.83,12.424-7.66,18.636-11.49C403.378,381.497,402.879,380.686,402.357,381.008z"/>
		<path style="fill:#DBC6AD;" d="M403.822,385.353c-11.426,6.387-22.755,12.948-33.979,19.684
			c-11.158,6.697-22.214,13.564-33.162,20.6c-6.182,3.973-12.33,8-18.443,12.079c-0.509,0.34-0.012,1.152,0.499,0.811
			c10.888-7.266,21.888-14.366,32.995-21.293c11.042-6.887,22.19-13.604,33.438-20.149c6.352-3.696,12.736-7.336,19.151-10.922
			C404.857,385.864,404.355,385.054,403.822,385.353z"/>
		<path style="fill:#DBC6AD;" d="M403.603,391.39c-11.004,6.374-22.008,12.748-33.012,19.123
			c-11.004,6.374-22.008,12.749-33.012,19.123c-6.17,3.574-12.341,7.149-18.511,10.723c-0.531,0.308-0.031,1.118,0.499,0.811
			c11.004-6.374,22.008-12.749,33.011-19.123c11.004-6.374,22.008-12.748,33.012-19.123c6.17-3.574,12.341-7.149,18.511-10.723
			C404.634,391.894,404.133,391.084,403.603,391.39z"/>
		<path style="fill:#DBC6AD;" d="M405.37,394.65c-11.571,6.002-23,12.277-34.272,18.821c-11.208,6.507-22.261,13.278-33.148,20.307
			c-6.14,3.964-12.226,8.011-18.259,12.137c-0.505,0.345-0.008,1.158,0.499,0.811c10.759-7.358,21.691-14.463,32.787-21.303
			c11.032-6.8,22.225-13.339,33.566-19.61c6.396-3.536,12.839-6.987,19.327-10.352C406.414,395.178,405.911,394.369,405.37,394.65z"
			/>
		<path style="fill:#DBC6AD;" d="M408.896,399.202c-11.689,5.953-23.249,12.158-34.668,18.615
			c-11.385,6.439-22.63,13.125-33.724,20.054c-6.252,3.905-12.456,7.888-18.611,11.945c-0.511,0.337-0.013,1.149,0.499,0.811
			c10.952-7.219,22.061-14.202,33.318-20.936c11.224-6.715,22.595-13.185,34.102-19.404c6.485-3.505,13.014-6.929,19.582-10.274
			C409.942,399.734,409.439,398.925,408.896,399.202z"/>
		<path style="fill:#DBC6AD;" d="M408.867,402.442c-11.481,6.029-22.802,12.364-33.944,19
			c-11.109,6.617-22.042,13.531-32.781,20.734c-6.052,4.059-12.043,8.211-17.97,12.45c-0.496,0.355,0,1.168,0.499,0.811
			c10.548-7.544,21.297-14.807,32.234-21.775c10.906-6.947,21.997-13.603,33.26-19.956c6.347-3.581,12.749-7.064,19.201-10.453
			C409.91,402.967,409.407,402.158,408.867,402.442z"/>
		<path style="fill:#F98C3A;" d="M416.17,403.113c-12.16,7.285-24.319,14.57-36.479,21.854c-12.16,7.285-24.32,14.57-36.479,21.855
			c-6.861,4.11-13.722,8.221-20.583,12.331c-0.527,0.315-0.027,1.126,0.499,0.811c12.16-7.285,24.32-14.57,36.479-21.855
			c12.16-7.285,24.319-14.57,36.479-21.855c6.861-4.11,13.722-8.221,20.583-12.331C417.195,403.609,416.695,402.798,416.17,403.113z
			"/>
		<path style="fill:#F98C3A;" d="M320.886,452.776c-4.635-7.71-5.926-17.233-3.748-25.942c0.623-2.491,1.535-4.894,2.718-7.173
			c0.282-0.543-0.561-0.987-0.844-0.441c-4.271,8.224-4.99,18.122-2.167,26.93c0.798,2.489,1.883,4.884,3.23,7.124
			C320.391,453.801,321.202,453.301,320.886,452.776z"/>
		<path style="fill:#8DB7A9;" d="M96.958,410.147l-6.009-1.295c-1.924-12.655-0.6-25.605,3.828-37.594l5.656,1.228
			C95.834,384.475,94.615,397.473,96.958,410.147z"/>
		<path style="fill:#8DB7A9;" d="M302.617,454.653l-6.161-1.333c-2.657-12.674-2.019-25.767,1.79-38.031l5.618,1.219
			C299.932,428.8,299.456,441.97,302.617,454.653z"/>
		<path style="fill:#8DB7A9;" d="M231.534,439.275l-5.99-1.295c-1.781-12.655-0.352-25.577,4.19-37.517l5.666,1.228
			C230.677,413.632,229.335,426.601,231.534,439.275z"/>
		<path style="fill:#8DB7A9;" d="M242.968,409.971l49.065,9.001c0,0-5.824,12.882-2.029,28.941l-50.471-10.412
			C239.532,437.501,235.639,423.559,242.968,409.971z"/>
	</g>
	<g>
		<polygon style="fill:#C1645D;" points="401.584,301.415 397.176,304.71 340.481,347.046 87.105,322.84 180.384,280.276 		"/>
		<path style="fill:#E5846A;" d="M345.375,399.094L92.59,373.041c-14.245-17.959-7.675-43.278-5.485-50.201l253.375,24.205
			C340.481,347.046,328.702,378.116,345.375,399.094z"/>
		<path style="fill:#FFDEC0;" d="M397.728,359.996l-52.353,39.098c-16.673-20.977-4.894-52.048-4.894-52.048l56.695-42.335
			C389.51,322.078,389.71,342.78,397.728,359.996z"/>
		<path style="fill:#DBC6AD;" d="M392.87,312.694c-7.007,5.436-14.014,10.872-21.021,16.308l-21.02,16.308
			c-3.941,3.058-7.883,6.116-11.824,9.173c-0.48,0.372,0.015,1.187,0.499,0.811c7.007-5.436,14.014-10.872,21.021-16.308
			l21.021-16.308c3.941-3.058,7.883-6.116,11.824-9.173C393.849,313.133,393.354,312.319,392.87,312.694z"/>
		<path style="fill:#DBC6AD;" d="M389.878,324.913c-6.449,4.561-12.971,9.019-19.563,13.37c-6.56,4.33-13.19,8.556-19.886,12.673
			c-3.803,2.339-7.628,4.642-11.472,6.912c-0.529,0.312-0.028,1.123,0.499,0.811c6.802-4.016,13.541-8.139,20.21-12.37
			c6.638-4.211,13.208-8.529,19.707-12.951c3.691-2.511,7.359-5.057,11.005-7.635C390.875,325.372,390.378,324.559,389.878,324.913z
			"/>
		<path style="fill:#DBC6AD;" d="M390.859,329.654c-6.931,5.216-13.863,10.433-20.794,15.65
			c-6.932,5.216-13.863,10.433-20.795,15.65c-3.925,2.954-7.849,5.907-11.774,8.861c-0.486,0.366,0.009,1.18,0.499,0.811
			c6.932-5.216,13.863-10.433,20.795-15.65c6.931-5.217,13.863-10.433,20.794-15.65c3.925-2.954,7.849-5.907,11.774-8.861
			C391.844,330.099,391.348,329.285,390.859,329.654z"/>
		<path style="fill:#DBC6AD;" d="M390.627,339.541c-6.739,4.797-13.533,9.515-20.384,14.151c-6.851,4.636-13.757,9.189-20.716,13.66
			c-3.949,2.537-7.915,5.047-11.898,7.53c-0.521,0.325-0.021,1.136,0.499,0.811c7.019-4.377,13.986-8.836,20.899-13.379
			c6.913-4.542,13.771-9.167,20.574-13.873c3.86-2.671,7.702-5.368,11.525-8.09C391.623,339.998,391.127,339.185,390.627,339.541z"
			/>
		<path style="fill:#DBC6AD;" d="M391.513,345.159c-7.259,4.043-14.4,8.297-21.408,12.76c-7.008,4.463-13.885,9.132-20.618,14.001
			c-3.787,2.739-7.528,5.541-11.223,8.403c-0.48,0.372,0.015,1.186,0.499,0.811c6.569-5.088,13.285-9.985,20.142-14.678
			c6.857-4.693,13.851-9.184,20.973-13.464c4.006-2.408,8.052-4.748,12.135-7.022C392.549,345.672,392.047,344.862,391.513,345.159z
			"/>
		<path style="fill:#DBC6AD;" d="M391.066,353.128c-6.794,4.098-13.588,8.197-20.382,12.295l-20.483,12.357
			c-3.839,2.315-7.677,4.631-11.516,6.947c-0.526,0.317-0.026,1.128,0.499,0.811c6.794-4.098,13.588-8.197,20.382-12.295
			c6.828-4.119,13.656-8.238,20.483-12.356c3.839-2.316,7.677-4.631,11.516-6.947C392.091,353.622,391.591,352.811,391.066,353.128z
			"/>
		<path style="fill:#DBC6AD;" d="M394.134,354.139c-6.739,5.033-13.478,10.065-20.217,15.098
			c-6.739,5.033-13.478,10.065-20.217,15.098c-3.814,2.849-7.629,5.697-11.443,8.546c-0.488,0.364,0.008,1.178,0.499,0.811
			c6.739-5.033,13.478-10.065,20.217-15.098c6.739-5.033,13.478-10.065,20.217-15.098c3.814-2.849,7.629-5.697,11.444-8.546
			C395.121,354.586,394.625,353.772,394.134,354.139z"/>
		<path style="fill:#DBC6AD;" d="M395.034,358.42c-6.602,4.806-13.204,9.613-19.806,14.419c-6.602,4.806-13.204,9.613-19.806,14.419
			l-11.153,8.12c-0.493,0.359,0.003,1.172,0.499,0.811c6.602-4.806,13.204-9.613,19.806-14.419
			c6.602-4.806,13.204-9.613,19.806-14.419c3.718-2.707,7.435-5.413,11.153-8.12C396.026,358.873,395.53,358.06,395.034,358.42z"/>
		<path style="fill:#C1645D;" d="M399.658,357.84c-7.083,5.357-14.167,10.713-21.25,16.07c-7.083,5.357-14.167,10.713-21.25,16.07
			l-11.953,9.039c-0.485,0.367,0.01,1.181,0.499,0.811c7.083-5.357,14.167-10.713,21.25-16.07
			c7.083-5.357,14.167-10.713,21.25-16.07c3.984-3.013,7.969-6.026,11.953-9.039C400.642,358.285,400.146,357.471,399.658,357.84z"
			/>
		<path style="fill:#FFAE64;" d="M126.282,326.583l-20.986-2.005c-5.514,16.076-3.64,33.609,1.229,49.899l18.921,1.95
			C120.959,360.448,122.401,342.889,126.282,326.583z"/>
		<path style="fill:#FFAE64;" d="M191.314,332.796l-14.542-1.389c-4.312,16.113-6.57,34.476-1.574,50.149l15.268,1.574
			C185.871,366.668,187.123,349.245,191.314,332.796z"/>
		<path style="fill:#FFAE64;" d="M321.628,345.245l-28.715-2.743c-5.53,16.682-5.6,35.202,1.118,51.301l27.294,2.813
			C314.279,380.312,316.375,362.113,321.628,345.245z"/>
		<path style="fill:#8DB7A9;" d="M352.222,359.918l22.039-16.586c0,0,10.665-0.539,14.99,42.278l-10.421-8.304l-6.618,21.789
			C372.213,399.094,362.014,352.548,352.222,359.918z"/>
	</g>
	<g>
		<path style="fill:#8DB7A9;" d="M415.803,314.206L266.81,350.752c0.267-1.276,0.495-2.533,0.686-3.752
			c3.39-20.939-2.485-33.413-4.104-36.337l148.555-33.509l0.038,0.01C411.985,277.165,421.259,287.659,415.803,314.206z"/>
		<path style="fill:#7CA596;" d="M411.947,277.155l-148.555,33.509c-0.086-0.171-0.171-0.305-0.229-0.409l-155.716-27.557
			l-7.57-1.343l149.146-37.222h0.009L411.947,277.155z"/>
		<path style="fill:#7CA596;" d="M267.495,347.001c-0.19,1.219-0.419,2.476-0.686,3.752L98.886,324.014l8.303-2.59
			c-0.229,0.543-0.486,1.086-0.752,1.619L267.495,347.001z"/>
		<path style="fill:#FFDEC0;" d="M267.495,347.001l-161.058-23.958c0.267-0.533,0.524-1.076,0.752-1.619
			c7.922-17.987,0.229-38.565,0.229-38.565l0.029-0.162l155.716,27.557c0.057,0.105,0.143,0.238,0.229,0.409
			C265.01,313.587,270.885,326.061,267.495,347.001z"/>
		<polygon style="fill:#FFDEC0;" points="274.22,317.928 406.442,288.81 405.251,292.648 408.427,295.957 406.442,298.604 
			411.947,301.516 409.089,306.016 409.883,307.737 278.72,340.031 282.656,336.987 279.911,332.619 284.279,328.781 
			280.838,325.34 275.763,322.56 281.764,320.31 		"/>
		<path style="fill:#659382;" d="M266.519,350.118c-21.86-3.463-43.72-6.926-65.58-10.388s-43.72-6.926-65.58-10.388l-36.765-5.824
			c-0.602-0.095-0.817,0.833-0.209,0.929l65.58,10.388c21.86,3.463,43.72,6.926,65.58,10.388c12.255,1.941,24.51,3.883,36.765,5.824
			C266.912,351.143,267.126,350.214,266.519,350.118z"/>
		<path style="fill:#659382;" d="M264.058,310.111c-21.213-3.852-42.425-7.704-63.638-11.556
			c-21.106-3.832-42.212-7.665-63.318-11.497c-11.939-2.168-23.878-4.336-35.816-6.504c-0.601-0.109-0.814,0.819-0.209,0.929
			c21.213,3.852,42.425,7.704,63.638,11.556c21.106,3.832,42.212,7.665,63.318,11.497c11.939,2.168,23.878,4.336,35.816,6.504
			C264.45,311.149,264.664,310.221,264.058,310.111z"/>
		<path style="fill:#659382;" d="M268.942,327.128c-0.355-2.215-0.857-4.402-1.504-6.55c-0.177-0.588-1.089-0.314-0.912,0.273
			c2.261,7.498,2.701,15.508,1.273,23.21c-0.402,2.165-0.952,4.3-1.638,6.392c-0.191,0.582,0.739,0.788,0.929,0.209
			C269.565,343.109,270.201,334.977,268.942,327.128z"/>
		<path style="fill:#659382;" d="M416.867,287.78c-0.111-0.603-1.022-0.323-0.912,0.274c1.561,8.521,1.219,17.337-0.964,25.719
			c-0.154,0.593,0.775,0.803,0.929,0.209C418.146,305.435,418.458,296.465,416.867,287.78z"/>
		<path style="fill:#DBC6AD;" d="M267.307,342.719c-20.322-3.129-40.643-6.259-60.965-9.388c-20.219-3.113-40.438-6.227-60.657-9.34
			c-11.393-1.754-22.785-3.509-34.177-5.263c-0.602-0.093-0.817,0.835-0.209,0.929c20.322,3.129,40.643,6.259,60.965,9.388
			c20.219,3.113,40.438,6.227,60.657,9.34c11.392,1.754,22.785,3.509,34.177,5.263C267.7,343.741,267.914,342.813,267.307,342.719z"
			/>
		<path style="fill:#DBC6AD;" d="M263.464,315.288c-9.963-1.551-19.917-3.157-29.862-4.82c-9.895-1.654-19.781-3.364-29.657-5.129
			c-9.925-1.774-19.841-3.604-29.746-5.489c-9.856-1.876-19.701-3.808-29.535-5.794c-9.883-1.996-19.755-4.048-29.615-6.156
			c-1.226-0.262-2.453-0.525-3.679-0.789c-0.599-0.129-0.81,0.8-0.209,0.929c9.857,2.121,19.726,4.187,29.606,6.197
			c9.831,2,19.674,3.945,29.527,5.835c9.902,1.899,19.815,3.743,29.738,5.531c9.874,1.779,19.757,3.503,29.65,5.171
			c9.942,1.677,19.894,3.297,29.855,4.862c1.239,0.195,2.478,0.388,3.717,0.581C263.857,316.31,264.072,315.382,263.464,315.288z"/>
		<path style="fill:#DBC6AD;" d="M264.339,321.08c-9.822-1.494-19.637-3.034-29.444-4.622c-9.807-1.588-19.607-3.223-29.398-4.905
			c-9.84-1.691-19.672-3.429-29.496-5.215c-9.774-1.777-19.54-3.601-29.297-5.472c-9.757-1.871-19.505-3.789-29.243-5.755
			c-1.217-0.246-2.434-0.492-3.651-0.739c-0.6-0.122-0.812,0.807-0.209,0.929c9.736,1.976,19.482,3.907,29.236,5.79
			s19.518,3.719,29.291,5.508c9.821,1.798,19.651,3.548,29.49,5.251c9.789,1.694,19.587,3.341,29.392,4.941
			c9.805,1.6,19.618,3.152,29.438,4.657c1.228,0.188,2.455,0.376,3.683,0.562C264.732,322.101,264.947,321.173,264.339,321.08z"/>
		<path style="fill:#DBC6AD;" d="M266.541,327.183c-19.822-3.385-39.643-6.771-59.465-10.156
			c-19.722-3.368-39.444-6.737-59.166-10.105c-11.056-1.888-22.113-3.777-33.169-5.665c-0.602-0.103-0.816,0.826-0.209,0.929
			c19.822,3.386,39.643,6.771,59.465,10.156c19.722,3.368,39.444,6.737,59.166,10.105c11.056,1.888,22.113,3.777,33.169,5.665
			C266.934,328.215,267.148,327.287,266.541,327.183z"/>
		<path style="fill:#DBC6AD;" d="M266.063,331.654c-19.625-3.226-39.25-6.452-58.875-9.678c-19.625-3.226-39.25-6.452-58.875-9.677
			c-11.002-1.808-22.004-3.617-33.006-5.425c-0.602-0.099-0.816,0.829-0.209,0.929c19.625,3.226,39.25,6.452,58.875,9.677
			c19.625,3.226,39.25,6.452,58.875,9.677c11.002,1.808,22.004,3.617,33.006,5.425C266.455,332.682,266.669,331.754,266.063,331.654
			z"/>
		<path style="fill:#DBC6AD;" d="M266.803,337.974c-20.118-3.276-40.236-6.553-60.354-9.829s-40.236-6.553-60.354-9.829
			c-11.278-1.837-22.557-3.674-33.835-5.51c-0.602-0.098-0.816,0.83-0.209,0.929c20.118,3.276,40.236,6.553,60.354,9.829
			s40.236,6.553,60.354,9.829c11.278,1.837,22.557,3.673,33.835,5.51C267.195,339.001,267.41,338.073,266.803,337.974z"/>
	</g>
	<g>
		<polygon style="fill:#FFAE64;" points="99.022,269.173 123.596,262.756 117.629,277.88 		"/>
		<path style="fill:#F99B4E;" d="M421.882,244.787l-252.817,20.275l-67.453-33.201l-5.709-2.811l253.138-20.296l72.66,35.763
			l-0.028,0.033C421.742,244.625,421.812,244.712,421.882,244.787z"/>
		<path style="fill:#FFAE64;" d="M423.11,282.6l0.028,0.239l-253.249,20.307l-0.363-0.174l0.139-0.185
			c4.411-7.044,4.509-31.366-1.103-37.682l0.503-0.043l252.817-20.275C427.563,251.115,427.507,275.556,423.11,282.6z"/>
		<path style="fill:#FFDEC0;" d="M169.665,302.788l-0.139,0.185l-67.243-32.105l0.112-0.152c4.397-7.044,5.039-32.473-0.782-38.855
			l0,0l67.453,33.201l-0.503,0.043C174.174,271.422,174.076,295.744,169.665,302.788z"/>
		<path style="fill:#F98C3A;" d="M169.763,302.488c-9.202-4.417-18.404-8.833-27.607-13.25c-9.167-4.4-18.333-8.799-27.5-13.199
			c-5.172-2.482-10.343-4.965-15.515-7.447c-0.551-0.264-0.996,0.578-0.441,0.844c9.202,4.417,18.404,8.833,27.607,13.25
			c9.166,4.4,18.333,8.799,27.5,13.199c5.172,2.482,10.343,4.965,15.515,7.447C169.873,303.596,170.318,302.754,169.763,302.488z"/>
		<path style="fill:#F98C3A;" d="M171.715,271.533c-0.698-2.347-1.576-4.634-2.608-6.854c-0.258-0.556-1.067-0.051-0.811,0.499
			c3.554,7.65,5.062,16.204,4.419,24.611c-0.183,2.394-0.555,4.77-1.089,7.11c-0.136,0.597,0.792,0.808,0.929,0.209
			C174.475,288.691,174.175,279.807,171.715,271.533z"/>
		<g>
			<path style="fill:#7CA596;" d="M202.009,297.216l-0.294-0.139l0.116-0.155c3.58-5.722,3.658-25.472-0.897-30.599l0.41-0.039
				l54.076-4.338c4.524,5.197,4.431,24.846,0.858,30.553L202.009,297.216z"/>
			<path style="fill:#F98C3A;" d="M202.009,297.692c-0.07,0-0.139-0.016-0.203-0.046l-0.294-0.139
				c-0.129-0.06-0.225-0.177-0.26-0.315c-0.034-0.139-0.005-0.286,0.081-0.401l0.116-0.155c3.468-5.544,3.534-25.038-0.872-29.997
				c-0.119-0.134-0.152-0.324-0.087-0.49c0.065-0.167,0.219-0.283,0.397-0.3l0.41-0.039l54.083-4.338
				c0.148-0.011,0.298,0.047,0.397,0.162c4.651,5.343,4.58,25.245,0.903,31.118c-0.079,0.126-0.214,0.208-0.363,0.221l-54.269,4.716
				C202.037,297.691,202.023,297.692,202.009,297.692z M201.84,266.723c4.036,6.014,3.961,23.785,0.671,29.972l53.484-4.648
				c3.3-5.712,3.368-24.393-0.784-29.605L201.84,266.723z"/>
		</g>
		<g>
			<path style="fill:#7CA596;" d="M276.206,291.694l-0.294-0.139l0.116-0.155c3.58-5.722,3.658-25.472-0.897-30.599l0.41-0.039
				l54.076-4.338c4.524,5.196,4.431,24.846,0.858,30.552L276.206,291.694z"/>
			<path style="fill:#F98C3A;" d="M276.206,292.17c-0.071,0-0.14-0.016-0.205-0.046l-0.294-0.139
				c-0.128-0.061-0.223-0.178-0.258-0.316c-0.034-0.138-0.005-0.284,0.081-0.399l0.115-0.154c3.468-5.546,3.534-25.04-0.871-29.999
				c-0.119-0.134-0.152-0.324-0.086-0.49c0.065-0.167,0.219-0.283,0.397-0.3l0.409-0.039l54.084-4.338
				c0.145-0.012,0.299,0.047,0.397,0.162c4.651,5.344,4.579,25.246,0.903,31.118c-0.079,0.126-0.214,0.208-0.363,0.221
				l-54.269,4.717C276.234,292.169,276.22,292.17,276.206,292.17z M276.036,261.2c4.037,6.013,3.961,23.785,0.671,29.973
				l53.485-4.648c3.299-5.712,3.368-24.392-0.784-29.605L276.036,261.2z"/>
		</g>
		<g>
			<path style="fill:#7CA596;" d="M345.824,286.177l-0.294-0.139l0.116-0.155c3.58-5.722,3.658-25.472-0.897-30.599l0.41-0.039
				l54.076-4.338c4.524,5.196,4.431,24.846,0.858,30.553L345.824,286.177z"/>
			<path style="fill:#F98C3A;" d="M345.824,286.652c-0.07,0-0.139-0.016-0.203-0.046l-0.294-0.139
				c-0.129-0.06-0.225-0.177-0.259-0.315c-0.034-0.139-0.005-0.286,0.081-0.401l0.116-0.155c3.468-5.544,3.534-25.038-0.872-29.997
				c-0.119-0.134-0.152-0.324-0.086-0.49c0.065-0.167,0.219-0.283,0.397-0.3l0.41-0.039l54.083-4.338
				c0.15-0.013,0.299,0.048,0.397,0.162c4.651,5.343,4.58,25.245,0.903,31.118c-0.079,0.126-0.214,0.208-0.363,0.221l-54.269,4.716
				C345.852,286.651,345.838,286.652,345.824,286.652z M345.655,255.683c4.036,6.014,3.961,23.785,0.671,29.972l53.484-4.648
				c3.3-5.712,3.368-24.393-0.784-29.605L345.655,255.683z"/>
		</g>
		<path style="fill:#F98C3A;" d="M189.641,271.923c-0.784-2.721-1.818-5.364-3.072-7.903c-0.272-0.55-1.081-0.046-0.811,0.499
			c4.333,8.774,5.794,18.906,4.223,28.558c-0.443,2.721-1.127,5.397-2.04,7.998c-0.202,0.577,0.728,0.783,0.929,0.209
			C192.166,291.886,192.396,281.486,189.641,271.923z"/>
		<path style="fill:#F98C3A;" d="M268.577,265.596c-0.784-2.721-1.818-5.364-3.072-7.903c-0.272-0.55-1.08-0.046-0.811,0.499
			c4.333,8.774,5.794,18.906,4.223,28.558c-0.443,2.721-1.128,5.397-2.04,7.998c-0.202,0.577,0.728,0.783,0.929,0.209
			C271.103,285.56,271.332,275.16,268.577,265.596z"/>
		<path style="fill:#F98C3A;" d="M340.384,259.809c-0.784-2.721-1.818-5.364-3.072-7.903c-0.272-0.55-1.081-0.046-0.811,0.499
			c4.333,8.774,5.794,18.906,4.223,28.558c-0.443,2.721-1.128,5.397-2.04,7.998c-0.202,0.577,0.728,0.783,0.929,0.209
			C342.91,279.772,343.139,269.372,340.384,259.809z"/>
		<path style="fill:#F98C3A;" d="M419.321,253.483c-0.784-2.721-1.818-5.364-3.072-7.903c-0.272-0.55-1.081-0.046-0.811,0.499
			c4.333,8.774,5.794,18.906,4.223,28.558c-0.443,2.721-1.128,5.397-2.04,7.998c-0.202,0.577,0.728,0.783,0.929,0.209
			C421.846,273.446,422.076,263.046,419.321,253.483z"/>
		<path style="fill:#DBC6AD;" d="M169.737,299.403c-8.349-4.053-16.699-8.105-25.048-12.158
			c-8.349-4.052-16.699-8.105-25.048-12.158c-4.71-2.286-9.42-4.572-14.13-6.858c-0.55-0.267-0.995,0.576-0.441,0.844
			c8.349,4.052,16.699,8.105,25.048,12.158c8.349,4.052,16.699,8.105,25.048,12.158c4.71,2.286,9.42,4.572,14.13,6.858
			C169.846,300.514,170.291,299.672,169.737,299.403z"/>
		<path style="fill:#DBC6AD;" d="M169.676,296.754c-8.485-3.847-16.9-7.846-25.24-11.999c-8.339-4.153-16.603-8.458-24.785-12.913
			c-4.628-2.519-9.229-5.087-13.804-7.701c-0.532-0.304-0.973,0.54-0.441,0.844c8.089,4.622,16.261,9.098,24.513,13.422
			c8.252,4.324,16.583,8.498,24.987,12.518c4.753,2.274,9.53,4.497,14.329,6.673C169.79,297.85,170.236,297.008,169.676,296.754z"/>
		<path style="fill:#DBC6AD;" d="M170.47,291.234c-8.316-3.659-16.603-7.386-24.859-11.181c-8.255-3.796-16.479-7.659-24.67-11.591
			c-4.641-2.227-9.271-4.476-13.89-6.747c-0.549-0.27-0.993,0.573-0.441,0.844c8.154,4.007,16.341,7.948,24.561,11.821
			c8.219,3.873,16.471,7.677,24.753,11.414c4.692,2.117,9.394,4.211,14.106,6.284C170.586,292.323,171.033,291.482,170.47,291.234z"
			/>
		<path style="fill:#DBC6AD;" d="M170.329,287.386c-8.3-3.957-16.6-7.914-24.901-11.872c-8.264-3.94-16.529-7.88-24.793-11.82
			c-4.687-2.234-9.374-4.469-14.06-6.703c-0.551-0.263-0.996,0.579-0.441,0.844l24.9,11.872c8.264,3.94,16.529,7.88,24.793,11.82
			c4.687,2.234,9.374,4.469,14.06,6.703C170.439,288.493,170.884,287.651,170.329,287.386z"/>
		<path style="fill:#DBC6AD;" d="M172.332,282.5c-8.355-3.448-16.664-7.005-24.925-10.673c-8.261-3.668-16.472-7.445-24.633-11.331
			c-4.603-2.192-9.19-4.419-13.76-6.679c-0.548-0.271-0.992,0.572-0.441,0.844c8.102,4.007,16.255,7.908,24.46,11.699
			c8.205,3.791,16.46,7.473,24.762,11.045c4.683,2.015,9.382,3.994,14.095,5.939C172.453,283.576,172.9,282.734,172.332,282.5z"/>
		<path style="fill:#DBC6AD;" d="M170.315,277.365c-8.425-3.322-16.785-6.808-25.073-10.458c-8.288-3.65-16.504-7.463-24.642-11.437
			c-4.601-2.247-9.177-4.545-13.728-6.893c-0.544-0.281-0.988,0.562-0.441,0.844c8.048,4.152,16.177,8.149,24.382,11.982
			c8.205,3.834,16.485,7.506,24.834,11.013c4.721,1.983,9.464,3.913,14.227,5.792C170.438,278.431,170.886,277.59,170.315,277.365z"
			/>
		<path style="fill:#DBC6AD;" d="M168.651,271.802c-8.274-2.675-16.459-5.623-24.536-8.846c-8.01-3.197-15.915-6.66-23.695-10.381
			c-4.412-2.11-8.784-4.305-13.115-6.579c-0.542-0.285-0.985,0.558-0.441,0.844c7.702,4.045,15.537,7.835,23.492,11.357
			c7.924,3.508,15.966,6.75,24.105,9.724c4.629,1.692,9.29,3.294,13.98,4.81C169.024,272.919,169.231,271.989,168.651,271.802z"/>
		<path style="fill:#DBC6AD;" d="M168.178,268.198c-8.138-2.982-16.216-6.126-24.226-9.434c-8.01-3.308-15.954-6.778-23.824-10.408
			c-4.438-2.047-8.852-4.145-13.242-6.292c-0.549-0.268-0.994,0.574-0.441,0.844c7.786,3.807,15.647,7.46,23.58,10.95
			c7.933,3.49,15.936,6.82,24.004,9.985c4.549,1.785,9.119,3.517,13.708,5.199C168.304,269.25,168.754,268.409,168.178,268.198z"/>
		<path style="fill:#DBC6AD;" d="M164.83,265.414c-7.595-3.727-15.191-7.454-22.786-11.181c-7.56-3.71-15.12-7.42-22.679-11.129
			c-4.295-2.108-8.589-4.215-12.884-6.322c-0.549-0.269-0.993,0.573-0.441,0.844c7.595,3.727,15.19,7.454,22.786,11.182
			c7.56,3.71,15.12,7.419,22.679,11.129c4.295,2.107,8.589,4.215,12.884,6.322C164.938,266.528,165.382,265.685,164.83,265.414z"/>
	</g>
	<g>
		<path style="fill:#C1645D;" d="M412.567,233.542l-167.743,28.271c-0.019,0.048-0.029,0.086-0.048,0.133L91.765,239.57l5.989-4.228
			c-0.162,0.695-0.333,1.409-0.524,2.133l148.508,21.263c5.809-21.301-3.818-29.033-3.818-29.033l164.286-27.681
			C406.206,202.024,417.49,210.251,412.567,233.542z"/>
		<polygon style="fill:#BC534B;" points="406.206,202.024 241.92,229.705 98.278,208.518 91.765,207.556 257.641,179.609 		"/>
		<path style="fill:#FFDEC0;" d="M245.738,258.738L97.231,237.475c0.191-0.724,0.362-1.438,0.524-2.133
			c3.618-15.797,0.524-26.824,0.524-26.824l143.642,21.187C241.92,229.705,251.547,237.437,245.738,258.738z"/>
		<path style="fill:#DBC6AD;" d="M243.33,255.962c-9.248-1.907-18.514-3.725-27.797-5.451c-9.237-1.718-18.49-3.346-27.759-4.884
			c-9.315-1.546-18.645-3.001-27.988-4.365c-9.297-1.357-18.607-2.624-27.928-3.8c-9.368-1.182-18.747-2.272-28.137-3.271
			c-1.168-0.124-2.336-0.247-3.504-0.368c-0.602-0.063-0.819,0.866-0.209,0.929c9.392,0.977,18.774,2.044,28.145,3.203
			c9.324,1.153,18.637,2.397,27.937,3.732c9.347,1.341,18.68,2.773,27.999,4.297c9.272,1.516,18.53,3.122,27.771,4.817
			c9.287,1.704,18.558,3.499,27.81,5.384c1.151,0.234,2.301,0.47,3.451,0.708C243.72,257.014,243.933,256.086,243.33,255.962z"/>
		<path style="fill:#DBC6AD;" d="M243.021,252.747c-9.159-1.832-18.331-3.602-27.514-5.308c-9.183-1.706-18.379-3.349-27.585-4.928
			c-9.252-1.587-18.515-3.11-27.788-4.569c-9.227-1.451-18.464-2.839-27.71-4.163s-18.502-2.584-27.765-3.78
			c-1.158-0.149-2.316-0.298-3.474-0.445c-0.602-0.077-0.819,0.851-0.209,0.929c9.266,1.181,18.523,2.424,27.772,3.732
			c9.248,1.308,18.488,2.68,27.717,4.115c9.276,1.443,18.541,2.949,27.796,4.52c9.209,1.563,18.407,3.19,27.593,4.88
			c9.186,1.69,18.361,3.444,27.523,5.261c1.145,0.227,2.29,0.455,3.435,0.684C243.412,253.796,243.625,252.868,243.021,252.747z"/>
		<path style="fill:#DBC6AD;" d="M244.337,243.071c-18.611-2.337-37.222-4.673-55.832-7.01l-55.549-6.974l-31.459-3.95
			c-0.602-0.076-0.819,0.853-0.209,0.929c18.611,2.337,37.222,4.673,55.832,7.01l55.549,6.974l31.459,3.95
			C244.73,244.076,244.946,243.148,244.337,243.071z"/>
		<path style="fill:#DBC6AD;" d="M242.948,239.18c-10.436-1.257-20.872-2.523-31.309-3.79c-18.425-2.228-36.851-4.466-55.276-6.694
			l-10.693-1.295l-1.057-0.124l-12.731-1.543l-1.009-0.124l-30.061-3.637c-0.609-0.076-0.39-1.009,0.209-0.933
			c10.122,1.228,20.235,2.447,30.357,3.676c0.314,0.038,0.628,0.076,0.943,0.114c0.029,0,0.067,0.009,0.095,0.009
			c4.275,0.524,8.56,1.038,12.836,1.552c0.381,0.048,0.752,0.095,1.133,0.143c13.74,1.666,27.471,3.333,41.212,4.99l55.562,6.732
			C243.767,238.322,243.548,239.256,242.948,239.18z"/>
		<path style="fill:#DBC6AD;" d="M242.687,233.054c-18.339-1.248-36.655-2.835-54.935-4.766
			c-18.137-1.916-36.239-4.167-54.293-6.752c-10.121-1.449-20.227-3.004-30.316-4.662c-0.602-0.099-0.816,0.829-0.209,0.929
			c18.088,2.972,36.23,5.611,54.415,7.911c18.134,2.293,36.311,4.249,54.518,5.87c10.276,0.915,20.561,1.721,30.854,2.422
			C243.332,234.047,243.294,233.095,242.687,233.054z"/>
		<path style="fill:#DBC6AD;" d="M243.11,247.881c-10.705-2.19-21.455-4.161-32.242-5.907c-10.71-1.733-21.455-3.246-32.227-4.536
			c-6.122-0.733-12.253-1.394-18.391-1.985c-0.602-0.058-0.82,0.87-0.209,0.929c10.877,1.047,21.732,2.316,32.557,3.812
			c10.747,1.485,21.463,3.192,32.14,5.118c6.068,1.095,12.123,2.262,18.164,3.498C243.501,248.933,243.713,248.004,243.11,247.881z"
			/>
		<path style="fill:#DBC6AD;" d="M181.238,224.611c-10.014-1.597-20.028-3.194-30.042-4.791
			c-10.014-1.597-20.028-3.194-30.042-4.791c-5.633-0.898-11.266-1.797-16.899-2.695c-0.602-0.096-0.817,0.832-0.209,0.929
			c10.014,1.597,20.028,3.194,30.042,4.791c10.014,1.597,20.028,3.194,30.042,4.791c5.633,0.898,11.266,1.797,16.899,2.695
			C181.631,225.637,181.845,224.708,181.238,224.611z"/>
		<path style="fill:#FFAE64;" d="M148.193,257.205c-0.076,5.332-1.752,10.436-3.618,15.378c-0.19,0.495-0.371,0.99-0.562,1.476
			c-0.143-0.495-0.286-0.981-0.429-1.476c-1.39-4.742-2.78-9.494-4.18-14.236c-2.571,3.447-5.523,6.589-8.798,9.36
			c-0.419,0.352-0.848,0.705-1.276,1.048c0.171-0.543,0.333-1.086,0.486-1.628c1.333-4.637,2.257-9.341,2.038-14.236
			c-0.267-5.818-2.361-11.379-2.723-17.188c-0.21-3.418,0.2-7.037,1.742-10.094l1.009,0.124l12.731,1.543l1.057,0.124
			c-2.619,3.58-2.485,8.684-1.447,12.864c0.714,2.857,1.771,5.609,2.619,8.427C147.67,251.463,148.232,254.291,148.193,257.205z"/>
		<path style="fill:#FFAE64;" d="M289.705,229.01c-0.892-2.162-1.955-4.248-3.182-6.239c-0.322-0.522-1.133-0.023-0.811,0.499
			c4.201,6.815,6.403,14.782,6.352,22.785c-0.015,2.291-0.22,4.574-0.607,6.832c-0.103,0.602,0.825,0.816,0.929,0.209
			C293.771,245.02,292.831,236.587,289.705,229.01z"/>
		<path style="fill:#FFAE64;" d="M379.597,214.238c-0.789-2.203-1.779-4.332-2.952-6.356c-0.308-0.531-1.118-0.031-0.811,0.499
			c4.049,6.99,5.777,15.278,4.903,23.309c-0.245,2.253-0.695,4.479-1.337,6.652c-0.173,0.588,0.756,0.796,0.929,0.209
			C382.665,230.636,382.378,222.002,379.597,214.238z"/>
		<path style="fill:#FFAE64;" d="M278.947,239.33c0.337,2.51-1.797,4.869-4.767,5.268c-2.97,0.399-5.652-1.312-5.989-3.822
			c-0.337-2.51,1.797-4.869,4.767-5.268S278.609,236.82,278.947,239.33z"/>
		<path style="fill:#FFAE64;" d="M343.072,231.263c0.337,2.51-1.797,4.869-4.767,5.268c-2.97,0.399-5.652-1.312-5.989-3.822
			c-0.337-2.51,1.797-4.869,4.767-5.268C340.053,227.041,342.735,228.753,343.072,231.263z"/>
		<path style="fill:#FFAE64;" d="M403.558,220.313c0.337,2.51-1.797,4.869-4.767,5.268c-2.97,0.399-5.652-1.312-5.989-3.822
			c-0.337-2.51,1.797-4.869,4.767-5.268S403.221,217.802,403.558,220.313z"/>
	</g>
	<g>
		<path style="fill:#7CA596;" d="M386.981,204.284L182.922,224.28l-53.127-33.998l-4.378-2.773l205.706-20.127l55.719,36.633
			l-0.021,0.032C386.874,204.123,386.928,204.209,386.981,204.284z"/>
		<path style="fill:#7CA596;" d="M386.359,160.148L182.3,180.144l-51.726-36.011l-4.378-2.773l204.305-18.114l55.718,36.633
			l-0.021,0.032C386.253,159.987,386.306,160.073,386.359,160.148z"/>
		<path style="fill:#8DB7A9;" d="M387.297,204.015l0.029,0.238l-9.636,0.943l-5.199,0.514l-169.685,16.626l-5.171,0.505
			l-14.702,1.438l-0.276-0.171l0.105-0.181c3.38-6.942,5.485-14.578,5.494-22.301c0.019-7.561-1.647-15.255-5.951-21.482
			l14.34-1.409l4.923-0.476l170.618-16.721l4.894-0.476l9.284-0.914c4.352,6.247,6.437,13.95,6.427,21.568
			C392.772,189.436,390.677,197.073,387.297,204.015z"/>
		<path style="fill:#FFDEC0;" d="M188.252,201.629c-0.011,7.718-2.109,15.351-5.492,22.298l-0.107,0.182l-51.565-33.025l0.086-0.15
			c3.372-6.947,5.47-16.484,5.492-24.203c0.011-7.718-1.627-16.303-6.091-22.598l0,0l51.726,36.011l0,0
			C186.604,186.375,188.274,194.061,188.252,201.629z"/>
		<path style="fill:#FFDEC0;" d="M360.106,193.959c0.836-2.906,1.322-5.904,1.33-8.925c0.005-3.578-0.684-7.176-2.068-10.466
			c-4.809,0.915-9.544,0.548-13.444-3.23l-120.527,11.493c-1.646,4.559-4.215,8.989-8.493,11.175
			c0.219,1.539,0.386,3.27,0.461,5.243c0.119,3.121-0.208,5.753-0.705,7.897c3.043,1.357,5.649,3.428,7.948,5.864L350,201.175
			C351.582,197.075,355.704,194.529,360.106,193.959z"/>
		<path style="fill:#7CA596;" d="M183.071,223.501c-7.443-4.676-14.887-9.352-22.33-14.027c-7.477-4.697-14.954-9.394-22.43-14.09
			c-4.191-2.633-8.382-5.266-12.573-7.898c-0.518-0.326-0.958,0.519-0.441,0.844c7.443,4.676,14.887,9.352,22.33,14.027
			c7.477,4.697,14.954,9.394,22.43,14.09c4.191,2.633,8.382,5.266,12.573,7.898C183.148,224.67,183.588,223.825,183.071,223.501z"/>
		<path style="fill:#7CA596;" d="M186.821,187.489c-0.912-2.587-2.098-5.074-3.539-7.408c-0.322-0.522-1.133-0.023-0.811,0.499
			c5,8.1,6.753,18.051,5,27.395c-0.497,2.648-1.273,5.236-2.328,7.715c-0.238,0.559,0.604,1.007,0.844,0.441
			C189.822,207.116,190.074,196.721,186.821,187.489z"/>
		<path style="fill:#DBC6AD;" d="M181.409,220.272c-11.864-8.602-24.116-16.668-36.717-24.149
			c-3.562-2.115-7.152-4.182-10.768-6.204c-0.535-0.299-0.977,0.545-0.441,0.844c12.687,7.096,25.052,14.765,37.041,22.986
			c3.443,2.361,6.855,4.769,10.235,7.22C181.249,221.323,181.905,220.631,181.409,220.272z"/>
		<path style="fill:#DBC6AD;" d="M183.966,217.338c-6.682-3.77-13.306-7.645-19.866-11.624c-6.56-3.979-13.057-8.063-19.488-12.248
			c-3.647-2.374-7.273-4.781-10.877-7.219c-0.506-0.342-0.945,0.504-0.441,0.844c6.355,4.299,12.777,8.499,19.264,12.596
			c6.487,4.097,13.04,8.09,19.654,11.979c3.751,2.206,7.523,4.377,11.312,6.515C184.058,218.483,184.5,217.639,183.966,217.338z"/>
		<path style="fill:#DBC6AD;" d="M183.899,211.002c-12.55-7.389-25.1-14.779-37.649-22.168c-3.547-2.088-7.093-4.177-10.64-6.265
			c-0.528-0.311-0.969,0.533-0.441,0.844c12.55,7.389,25.1,14.779,37.649,22.168c3.547,2.088,7.093,4.177,10.64,6.265
			C183.986,212.157,184.427,211.313,183.899,211.002z"/>
		<path style="fill:#DBC6AD;" d="M185.948,207.476c-13.167-6.742-25.998-14.136-38.428-22.157c-3.533-2.28-7.033-4.611-10.501-6.989
			c-0.504-0.345-0.942,0.501-0.441,0.844c12.199,8.368,24.811,16.13,37.783,23.241c3.687,2.021,7.404,3.989,11.147,5.906
			C186.052,208.599,186.495,207.757,185.948,207.476z"/>
		<path style="fill:#DBC6AD;" d="M186.59,201.152c-12.596-6.807-25.193-13.615-37.789-20.422c-3.549-1.918-7.098-3.836-10.648-5.754
			c-0.539-0.291-0.982,0.552-0.441,0.844c12.596,6.807,25.193,13.615,37.789,20.422c3.549,1.918,7.098,3.836,10.648,5.754
			C186.688,202.288,187.13,201.444,186.59,201.152z"/>
		<path style="fill:#DBC6AD;" d="M186.821,197.345c-12.799-6.872-25.422-14.071-37.849-21.594c-3.485-2.11-6.954-4.245-10.409-6.404
			c-0.519-0.325-0.959,0.52-0.441,0.844c12.318,7.701,24.833,15.086,37.532,22.142c3.561,1.978,7.137,3.93,10.726,5.857
			C186.92,198.479,187.363,197.636,186.821,197.345z"/>
		<path style="fill:#DBC6AD;" d="M184.579,192.195l-36.175-20.818c-3.426-1.972-6.851-3.943-10.277-5.914
			c-0.531-0.305-0.973,0.538-0.441,0.844c12.058,6.939,24.117,13.879,36.175,20.818c3.426,1.971,6.851,3.943,10.277,5.914
			C184.669,193.345,185.11,192.501,184.579,192.195z"/>
		<path style="fill:#DBC6AD;" d="M184.053,185.687c-12.169-6.224-24.225-12.668-36.16-19.33c-3.391-1.893-6.771-3.803-10.142-5.73
			c-0.532-0.304-0.973,0.54-0.441,0.844c11.866,6.784,23.853,13.354,35.958,19.703c3.439,1.804,6.887,3.589,10.344,5.357
			C184.157,186.81,184.601,185.967,184.053,185.687z"/>
		<path style="fill:#DBC6AD;" d="M181.283,182.156c-11.747-7.518-23.493-15.036-35.24-22.555c-3.337-2.136-6.674-4.272-10.011-6.408
			c-0.515-0.33-0.955,0.515-0.441,0.844c11.747,7.518,23.494,15.036,35.24,22.555c3.337,2.136,6.674,4.272,10.011,6.408
			C181.358,183.33,181.797,182.484,181.283,182.156z"/>
		<path style="fill:#FFAE64;" d="M202.805,222.335l-5.171,0.505c0.733-2.047,1.343-4.133,1.838-6.256
			c2.952-12.579,1.962-25.872-2.828-37.851l4.923-0.476c1.066,2.799,1.942,5.666,2.609,8.589
			C206.833,198.577,206.385,210.89,202.805,222.335z"/>
		<path style="fill:#FFAE64;" d="M377.689,205.195l-5.199,0.514c0.876-2.352,1.609-4.752,2.181-7.208
			c2.876-12.274,2.009-25.224-2.485-36.965l4.894-0.476c0.933,2.514,1.685,5.085,2.285,7.703
			C382.098,180.819,381.546,193.483,377.689,205.195z"/>
	</g>
	<g>
		<path style="fill:#C1645D;" d="M367.062,156.448l-161.496,24.091c-0.628-1.2-1.219-2.428-1.762-3.676l152.974-22.825
			c-0.943-1.571-1.705-3.228-2.305-4.951l7.208,4.209h0.01L367.062,156.448z"/>
		<polygon style="fill:#E5846A;" points="373.461,112.455 357.102,114.893 308.415,122.168 206.566,137.365 206.509,137.337 
			142.072,99.686 308.958,74.776 		"/>
		<path style="fill:#C1645D;" d="M206.48,137.375c-4.971,5.666-7.265,13.455-7.122,21.025c0.124,6.37,1.847,12.617,4.447,18.463
			c0.543,1.247,1.133,2.476,1.762,3.676l-0.238,0.038l-5.37-3.142l-3.771-2.2l-1.133-0.667l-2.752-1.609l-1.095-0.629
			c0-0.009,0-0.009,0-0.009l-47.544-27.767l-1.124-0.657l-2.714-1.59l-1.095-0.638l-1.505-0.876
			c-3.371-13.674-1.666-28.567,4.79-41.098l0.057-0.009l3.533,2.066l0.819,0.476l2.009,1.171l0.819,0.486l48.354,28.252l0.828,0.476
			l2.009,1.181l0.809,0.476l5.256,3.066C206.499,137.346,206.49,137.356,206.48,137.375z"/>
		<path style="fill:#FFDEC0;" d="M354.473,149.087c0.6,1.723,1.362,3.38,2.305,4.951l-152.974,22.825
			c-2.6-5.846-4.323-12.093-4.447-18.463c-0.143-7.57,2.152-15.359,7.122-21.025l0.086-0.009l101.849-15.197l48.687-7.275
			c-1.952,3.485-2.876,7.494-3.533,11.455c-0.79,4.742-1.238,9.56-0.828,14.35C352.979,143.545,353.531,146.392,354.473,149.087z"/>
		<path style="fill:#DBC6AD;" d="M353.906,118.258l-57.313,8.578c-19.008,2.845-38.016,5.69-57.024,8.535
			c-10.71,1.603-21.42,3.206-32.13,4.809c-0.6,0.09-0.573,1.042,0.033,0.952c19.104-2.859,38.209-5.718,57.313-8.578
			c19.008-2.845,38.016-5.69,57.023-8.535l32.13-4.809C354.539,119.12,354.512,118.168,353.906,118.258z"/>
		<path style="fill:#DBC6AD;" d="M353.418,123.899c-9.888,1.103-19.766,2.29-29.633,3.565c-9.867,1.275-19.723,2.636-29.565,4.083
			c-9.785,1.439-19.558,2.963-29.317,4.571c-9.816,1.618-19.619,3.321-29.405,5.11c-9.787,1.789-19.558,3.664-29.311,5.624
			c-1.213,0.244-2.426,0.489-3.639,0.735c-0.602,0.122-0.323,1.033,0.274,0.912c9.701-1.971,19.419-3.859,29.153-5.661
			c9.734-1.802,19.484-3.52,29.247-5.153c9.87-1.65,19.755-3.213,29.653-4.688c9.791-1.46,19.595-2.834,29.41-4.123
			c9.815-1.289,19.642-2.492,29.478-3.61c1.229-0.14,2.459-0.278,3.689-0.415C354.057,124.783,354.028,123.831,353.418,123.899z"/>
		<path style="fill:#DBC6AD;" d="M351.62,129.436l-58.987,8.878c-19.563,2.944-39.126,5.889-58.69,8.833
			c-11.023,1.659-22.046,3.318-33.069,4.977c-0.6,0.09-0.573,1.043,0.033,0.952l58.988-8.878
			c19.563-2.944,39.126-5.889,58.689-8.833c11.023-1.659,22.046-3.318,33.069-4.977C352.253,130.297,352.226,129.344,351.62,129.436
			z"/>
		<path style="fill:#DBC6AD;" d="M351.249,134.431c-19.499,2.906-38.998,5.812-58.497,8.718
			c-19.401,2.891-38.801,5.782-58.202,8.674c-10.931,1.629-21.862,3.258-32.794,4.887c-0.6,0.089-0.573,1.042,0.033,0.952
			c19.499-2.906,38.998-5.812,58.497-8.717c19.401-2.891,38.801-5.782,58.202-8.674c10.931-1.629,21.862-3.258,32.794-4.887
			C351.882,135.293,351.855,134.34,351.249,134.431z"/>
		<path style="fill:#DBC6AD;" d="M352.304,138.986c-19.717,2.808-39.433,5.615-59.15,8.423c-19.617,2.794-39.234,5.587-58.852,8.381
			c-11.053,1.574-22.107,3.148-33.16,4.722c-0.601,0.086-0.574,1.038,0.033,0.952c19.717-2.808,39.434-5.615,59.15-8.423
			c19.617-2.794,39.234-5.587,58.852-8.38c11.053-1.574,22.107-3.148,33.16-4.722C352.939,139.852,352.911,138.899,352.304,138.986z
			"/>
		<path style="fill:#DBC6AD;" d="M351.547,143.72l-58.245,7.973c-19.415,2.658-38.83,5.316-58.245,7.973
			c-10.939,1.498-21.879,2.995-32.818,4.493c-0.602,0.083-0.574,1.035,0.033,0.952c19.415-2.658,38.83-5.315,58.245-7.973
			c19.415-2.658,38.83-5.316,58.245-7.973c10.939-1.498,21.879-2.995,32.818-4.493C352.182,144.589,352.154,143.637,351.547,143.72z
			"/>
		<path style="fill:#DBC6AD;" d="M352.225,147.258c-19.406,2.776-38.811,5.552-58.217,8.328
			c-19.308,2.762-38.615,5.524-57.923,8.286c-10.879,1.556-21.758,3.113-32.637,4.669c-0.601,0.086-0.574,1.038,0.033,0.952
			c19.406-2.776,38.811-5.552,58.217-8.328c19.308-2.762,38.615-5.524,57.923-8.286c10.879-1.556,21.758-3.113,32.637-4.669
			C352.86,148.124,352.832,147.171,352.225,147.258z"/>
		<path style="fill:#DBC6AD;" d="M354.175,151.893c-19.659,2.757-39.318,5.514-58.977,8.271
			c-19.659,2.757-39.318,5.514-58.977,8.271c-11.077,1.553-22.154,3.107-33.231,4.66c-0.602,0.084-0.574,1.037,0.033,0.952
			c19.659-2.757,39.318-5.514,58.977-8.271c19.659-2.757,39.318-5.514,58.977-8.271c11.077-1.553,22.154-3.107,33.231-4.66
			C354.81,152.761,354.782,151.808,354.175,151.893z"/>
		<path style="fill:#C1645D;" d="M373.381,111.851c-21.874,3.285-43.747,6.57-65.621,9.855l-65.29,9.805l-36.788,5.525
			c-0.604,0.091-0.576,1.049,0.033,0.958c21.874-3.285,43.747-6.57,65.621-9.855l65.29-9.805l36.788-5.525
			C374.018,112.718,373.991,111.759,373.381,111.851z"/>
		<path style="fill:#FFAE64;" d="M142.558,110.551c-3.752,10.084-4.714,21.177-2.733,31.756l-1.095-0.638
			c-0.257-1.476-0.457-2.961-0.6-4.456c-1.162-12.208,1.428-24.767,7.475-35.461l0.819,0.476
			C144.919,104.895,143.624,107.685,142.558,110.551z"/>
		<path style="fill:#FFAE64;" d="M145.605,111.837c-3.79,10.427-4.495,21.93-1.943,32.718l-1.124-0.657
			c-0.419-1.904-0.743-3.828-0.971-5.77c-1.371-11.912,1.019-24.253,6.865-34.727l0.819,0.486
			C147.824,106.437,146.605,109.094,145.605,111.837z"/>
		<path style="fill:#FFAE64;" d="M194.872,140.365c-3.847,10.351-4.761,21.777-2.571,32.594l-1.095-0.629c0-0.009,0-0.009,0-0.009
			c-0.333-1.752-0.581-3.514-0.752-5.285c-1.152-12.007,1.343-24.339,7.151-34.899l0.828,0.476
			C197.053,135.109,195.872,137.699,194.872,140.365z"/>
		<path style="fill:#FFAE64;" d="M197.929,141.66c-3.904,10.693-4.542,22.549-1.742,33.575l-1.133-0.667
			c-0.524-2.18-0.905-4.39-1.162-6.618c-1.352-11.703,0.933-23.796,6.551-34.156l0.809,0.476
			C199.967,136.642,198.853,139.117,197.929,141.66z"/>
	</g>
	<g>
		<polygon style="fill:#FFAE64;" points="133.768,94.628 150.529,88.998 146.46,102.267 		"/>
		<path style="fill:#F99B4E;" d="M352.049,67.386L181.545,85.174l-46.011-29.128l-3.895-2.466l170.723-17.806l49.563,31.376
			l-0.019,0.029C351.954,67.243,352.002,67.32,352.049,67.386z"/>
		<path style="fill:#FFAE64;" d="M352.887,106.408l0.019,0.21l-170.799,17.816l-0.248-0.152l0.095-0.162
			c3.009-6.18,4.875-12.969,4.885-19.835c0.019-6.732-1.809-13.531-5.637-19.073l0.343-0.038l170.504-17.787
			c3.875,5.551,5.732,12.407,5.723,19.187C357.753,93.439,355.887,100.228,352.887,106.408z"/>
		<path style="fill:#FFDEC0;" d="M186.84,104.285c-0.01,6.866-1.876,13.655-4.885,19.835l-0.095,0.162l-45.868-28.166l0.076-0.133
			c2.999-6.18,4.866-12.969,4.885-19.835c0.009-6.866-1.447-14.502-5.418-20.101l0,0l46.011,29.128l-0.343,0.038
			C185.03,90.754,186.859,97.552,186.84,104.285z"/>
		<g>
			<path style="fill:#F98C3A;" d="M181.544,125.233c-0.171,0-0.345-0.046-0.501-0.143l-47.777-29.653
				c-0.447-0.277-0.584-0.864-0.307-1.311s0.864-0.585,1.311-0.307l47.777,29.653c0.447,0.277,0.584,0.864,0.307,1.311
				C182.173,125.074,181.862,125.233,181.544,125.233z"/>
		</g>
		<g>
			<path style="fill:#F98C3A;" d="M180.977,85.777c-0.171,0-0.345-0.046-0.501-0.143L131.433,55.1
				c-0.447-0.277-0.584-0.864-0.307-1.311c0.277-0.447,0.864-0.585,1.311-0.307l49.042,30.534c0.447,0.277,0.584,0.864,0.307,1.311
				C181.606,85.617,181.294,85.777,180.977,85.777z"/>
		</g>
		<path style="fill:#FFDEC0;" d="M326.538,103.091l0.013,0.143l-117.006,12.083c0,0,3.522-4.481,3.191-13.15
			c-0.39-10.21-3.406-13.602-3.641-13.576l116.869-12.194c2.651,3.798,3.921,8.487,3.915,13.125
			C329.866,94.219,328.59,98.864,326.538,103.091z"/>
		<path style="fill:#FFDEC0;" d="M204.265,102.994c0,2.467-1.644,4.467-3.673,4.467c-2.028,0-3.673-2-3.673-4.467
			c0-2.467,1.644-4.467,3.673-4.467C202.621,98.527,204.265,100.527,204.265,102.994z"/>
		<path style="fill:#FFDEC0;" d="M344.429,88.998c0,2.467-1.644,4.467-3.673,4.467c-2.028,0-3.673-2-3.673-4.467
			c0-2.467,1.644-4.467,3.673-4.467C342.784,84.531,344.429,86.531,344.429,88.998z"/>
		<path style="fill:#DBC6AD;" d="M183.821,119.032c-11.877-6.936-23.754-13.872-35.631-20.809c-3.345-1.953-6.689-3.906-10.034-5.86
			c-0.529-0.309-0.97,0.535-0.441,0.844c11.877,6.936,23.754,13.872,35.631,20.808c3.345,1.953,6.689,3.907,10.034,5.86
			C183.909,120.185,184.35,119.341,183.821,119.032z"/>
		<path style="fill:#DBC6AD;" d="M185.471,113.924c-6.016-3.088-11.824-6.554-17.628-10.018
			c-5.952-3.552-11.904-7.105-17.856-10.657c-3.367-2.01-6.734-4.019-10.102-6.029c-0.526-0.314-0.967,0.53-0.441,0.844
			c11.858,7.077,23.656,14.272,35.598,21.206c3.287,1.908,6.605,3.763,9.987,5.498C185.574,115.048,186.018,114.205,185.471,113.924
			z"/>
		<path style="fill:#DBC6AD;" d="M186.03,108.72c-11.334-7.157-22.669-14.315-34.003-21.472c-3.219-2.033-6.438-4.066-9.658-6.099
			c-0.518-0.327-0.957,0.518-0.441,0.844c11.334,7.157,22.669,14.315,34.003,21.472c3.219,2.033,6.438,4.066,9.658,6.099
			C186.107,109.891,186.546,109.046,186.03,108.72z"/>
		<path style="fill:#DBC6AD;" d="M185.596,100.91c-11.199-6.995-22.53-13.779-33.986-20.343c-3.235-1.854-6.48-3.689-9.734-5.508
			c-0.535-0.299-0.977,0.545-0.441,0.844c11.526,6.442,22.93,13.101,34.203,19.977c3.183,1.941,6.355,3.9,9.517,5.875
			C185.674,102.078,186.114,101.233,185.596,100.91z"/>
		<path style="fill:#DBC6AD;" d="M183.899,91.301c-10.738-5.464-21.475-10.928-32.212-16.391c-3.038-1.546-6.075-3.091-9.113-4.637
			c-0.545-0.277-0.989,0.565-0.441,0.844l32.212,16.391l9.113,4.637C184.003,92.423,184.447,91.58,183.899,91.301z"/>
		<path style="fill:#DBC6AD;" d="M169.675,80.66c-7.481-4.301-14.962-8.602-22.443-12.902c-2.128-1.223-4.255-2.446-6.383-3.669
			c-0.531-0.305-0.973,0.539-0.441,0.844c7.481,4.301,14.962,8.602,22.442,12.903c2.128,1.223,4.255,2.446,6.383,3.67
			C169.765,81.81,170.206,80.966,169.675,80.66z"/>
		<path style="fill:#DBC6AD;" d="M185.895,97.365c-8.043-4.514-16.085-9.028-24.128-13.542c-2.268-1.273-4.537-2.546-6.805-3.819
			c-0.534-0.3-0.976,0.544-0.441,0.844c8.043,4.514,16.085,9.028,24.128,13.542c2.269,1.273,4.537,2.546,6.805,3.82
			C185.988,98.508,186.43,97.665,185.895,97.365z"/>
		<path style="fill:#DBC6AD;" d="M162.928,97.615c-7.111-4.481-14.222-8.962-21.334-13.443c-0.518-0.326-0.958,0.519-0.441,0.844
			c7.111,4.481,14.222,8.962,21.333,13.443C163.004,98.785,163.444,97.94,162.928,97.615z"/>
	</g>
</g>
</svg>
